<svg width="1280" height="900" viewBox="0 0 1280 900" fill="none" xmlns="http://www.w3.org/2000/svg">
  <defs>
    <linearGradient id="bg" x1="0" y1="0" x2="1280" y2="900" gradientUnits="userSpaceOnUse">
      <stop stop-color="#F6FAF7"/>
      <stop offset="1" stop-color="#EEF5F1"/>
    </linearGradient>
  </defs>
  <rect width="1280" height="900" rx="36" fill="url(#bg)"/>
  <rect x="46" y="46" width="1188" height="808" rx="30" fill="#FFFFFF" stroke="#D7E5DC"/>

  <rect x="92" y="94" width="760" height="712" rx="28" fill="#F8FCFA" stroke="#E2ECE6"/>
  <rect x="134" y="140" width="676" height="220" rx="20" fill="#FFFFFF" stroke="#DEE9E3"/>
  <rect x="164" y="180" width="218" height="18" rx="9" fill="#1E4D35"/>
  <rect x="164" y="210" width="166" height="12" rx="6" fill="#5E8E72"/>
  <rect x="164" y="232" width="204" height="12" rx="6" fill="#8AA796"/>
  <rect x="164" y="258" width="120" height="34" rx="10" fill="#E8820C"/>
  <rect x="296" y="258" width="132" height="34" rx="10" fill="#EAF4ED" stroke="#CFE0D6"/>

  <rect x="134" y="388" width="676" height="374" rx="20" fill="#FFFFFF" stroke="#DEE9E3"/>
  <rect x="168" y="424" width="336" height="302" rx="18" fill="#EEF7F1"/>
  <circle cx="246" cy="506" r="44" fill="#1E4D35"/>
  <rect x="188" y="548" width="116" height="48" rx="24" fill="#2A6445"/>
  <rect x="318" y="466" width="154" height="14" rx="7" fill="#2F6A49"/>
  <rect x="318" y="492" width="110" height="10" rx="5" fill="#58886D"/>
  <rect x="318" y="512" width="128" height="10" rx="5" fill="#6E9A83"/>

  <rect x="528" y="424" width="248" height="134" rx="16" fill="#FFF6EC" stroke="#F1D7B8"/>
  <rect x="550" y="452" width="198" height="12" rx="6" fill="#D97706"/>
  <rect x="550" y="474" width="134" height="10" rx="5" fill="#E3A25E"/>
  <rect x="550" y="492" width="160" height="10" rx="5" fill="#EEC28E"/>

  <rect x="528" y="574" width="248" height="152" rx="16" fill="#F4FAF6" stroke="#DCE9E1"/>
  <path d="M554 686L594 656L634 668L676 632L716 646L750 620" stroke="#1E4D35" stroke-width="7" stroke-linecap="round" stroke-linejoin="round"/>
  <circle cx="594" cy="656" r="6" fill="#E8820C"/>
  <circle cx="676" cy="632" r="6" fill="#E8820C"/>
  <circle cx="750" cy="620" r="6" fill="#E8820C"/>

  <rect x="878" y="94" width="312" height="712" rx="28" fill="#F8FCFA" stroke="#E2ECE6"/>
  <rect x="908" y="126" width="252" height="304" rx="20" fill="#FFFFFF" stroke="#DEE9E3"/>
  <circle cx="996" cy="244" r="42" fill="#ECF7EF"/>
  <circle cx="996" cy="232" r="18" fill="#1E4D35"/>
  <rect x="972" y="252" width="48" height="20" rx="10" fill="#2C6948"/>
  <circle cx="1072" cy="244" r="42" fill="#FFF4E8"/>
  <circle cx="1072" cy="232" r="18" fill="#D97706"/>
  <rect x="1048" y="252" width="48" height="20" rx="10" fill="#CC7316"/>
  <rect x="936" y="316" width="196" height="14" rx="7" fill="#AFC0B5"/>
  <rect x="936" y="340" width="144" height="10" rx="5" fill="#C4D0C8"/>

  <rect x="908" y="452" width="252" height="324" rx="20" fill="#FFFFFF" stroke="#DEE9E3"/>
  <rect x="938" y="486" width="192" height="12" rx="6" fill="#1E4D35"/>
  <rect x="938" y="508" width="136" height="10" rx="5" fill="#4E8062"/>
  <rect x="938" y="534" width="192" height="186" rx="14" fill="#F5FAF6"/>
  <path d="M960 674L998 646L1038 658L1078 624L1110 636" stroke="#E8820C" stroke-width="7" stroke-linecap="round" stroke-linejoin="round"/>
  <circle cx="998" cy="646" r="6" fill="#1E4D35"/>
  <circle cx="1078" cy="624" r="6" fill="#1E4D35"/>
</svg>
