<svg width="1200" height="720" viewBox="0 0 1200 720" fill="none" xmlns="http://www.w3.org/2000/svg">
  <rect width="1200" height="720" rx="30" fill="#F7FBF8"/>
  <rect x="42" y="42" width="1116" height="636" rx="24" fill="#FFFFFF" stroke="#DCE8E1"/>
  <rect x="84" y="84" width="1032" height="110" rx="18" fill="#F8FCFA" stroke="#E2ECE6"/>
  <rect x="116" y="126" width="280" height="14" rx="7" fill="#1E4D35"/>
  <rect x="116" y="150" width="190" height="10" rx="5" fill="#5A876E"/>
  <rect x="84" y="224" width="690" height="414" rx="20" fill="#F9FCFA" stroke="#DFEAE3"/>
  <rect x="116" y="256" width="626" height="100" rx="14" fill="#FFFFFF" stroke="#E1EBE5"/>
  <circle cx="162" cy="306" r="18" fill="#1E4D35"/>
  <rect x="192" y="292" width="156" height="10" rx="5" fill="#2D6948"/>
  <rect x="192" y="310" width="104" height="8" rx="4" fill="#4F8063"/>
  <rect x="116" y="376" width="626" height="230" rx="14" fill="#FFFFFF" stroke="#E1EBE5"/>
  <path d="M148 548L214 510L276 526L344 474L410 494L476 444L548 462L616 418L690 436" stroke="#1E4D35" stroke-width="8" stroke-linecap="round" stroke-linejoin="round"/>
  <circle cx="214" cy="510" r="7" fill="#E8820C"/>
  <circle cx="344" cy="474" r="7" fill="#E8820C"/>
  <circle cx="476" cy="444" r="7" fill="#E8820C"/>
  <circle cx="616" cy="418" r="7" fill="#E8820C"/>
  <rect x="804" y="224" width="312" height="414" rx="20" fill="#FFF8F0" stroke="#F1D8BB"/>
  <rect x="836" y="258" width="248" height="160" rx="14" fill="#FFFFFF" stroke="#F0DFCA"/>
  <rect x="864" y="292" width="194" height="12" rx="6" fill="#D97706"/>
  <rect x="864" y="314" width="138" height="10" rx="5" fill="#E3A05A"/>
  <rect x="864" y="332" width="168" height="10" rx="5" fill="#EDBD87"/>
  <rect x="836" y="438" width="248" height="166" rx="14" fill="#FFFFFF" stroke="#F0DFCA"/>
  <circle cx="886" cy="504" r="20" fill="#FFF4E9"/>
  <circle cx="886" cy="498" r="9" fill="#D97706"/>
  <rect x="874" y="510" width="24" height="10" rx="5" fill="#CB7215"/>
  <rect x="920" y="490" width="134" height="10" rx="5" fill="#C18548"/>
  <rect x="920" y="508" width="88" height="8" rx="4" fill="#D7A977"/>
</svg>
