<svg width="1200" height="720" viewBox="0 0 1200 720" fill="none" xmlns="http://www.w3.org/2000/svg">
  <rect width="1200" height="720" rx="30" fill="#F7FBF8"/>
  <rect x="42" y="42" width="1116" height="636" rx="24" fill="#FFFFFF" stroke="#DCE8E1"/>
  <rect x="84" y="84" width="1032" height="180" rx="20" fill="#F8FCFA" stroke="#E2ECE6"/>
  <rect x="120" y="122" width="278" height="14" rx="7" fill="#1E4D35"/>
  <rect x="120" y="146" width="188" height="10" rx="5" fill="#5B886E"/>
  <rect x="930" y="116" width="154" height="42" rx="12" fill="#ECF7EF" stroke="#D0E2D6"/>
  <rect x="952" y="132" width="110" height="10" rx="5" fill="#1E4D35"/>
  <rect x="84" y="294" width="496" height="344" rx="20" fill="#F9FCFA" stroke="#DFEAE3"/>
  <circle cx="206" cy="458" r="78" fill="#ECF7EF" stroke="#CEE1D4"/>
  <circle cx="206" cy="434" r="28" fill="#1E4D35"/>
  <rect x="166" y="470" width="80" height="34" rx="17" fill="#2D6A48"/>
  <circle cx="450" cy="458" r="78" fill="#FFF4E9" stroke="#F0D6B5"/>
  <circle cx="450" cy="434" r="28" fill="#D97706"/>
  <rect x="410" y="470" width="80" height="34" rx="17" fill="#CB7216"/>
  <rect x="274" y="406" width="112" height="98" rx="16" fill="#FFFFFF" stroke="#D8E4DC"/>
  <rect x="292" y="438" width="76" height="10" rx="5" fill="#1E4D35"/>
  <rect x="292" y="456" width="58" height="8" rx="4" fill="#4C7F60"/>
  <rect x="618" y="294" width="498" height="344" rx="20" fill="#FFF8F0" stroke="#F1D8BB"/>
  <rect x="652" y="330" width="430" height="124" rx="14" fill="#FFFFFF" stroke="#F0DFCA"/>
  <rect x="680" y="366" width="374" height="14" rx="7" fill="#D97706"/>
  <rect x="680" y="392" width="246" height="10" rx="5" fill="#E4A460"/>
  <rect x="652" y="476" width="430" height="130" rx="14" fill="#FFFFFF" stroke="#F0DFCA"/>
  <path d="M686 566L748 530L810 548L872 508L936 526L998 488L1048 502" stroke="#1E4D35" stroke-width="8" stroke-linecap="round" stroke-linejoin="round"/>
  <circle cx="748" cy="530" r="7" fill="#E8820C"/>
  <circle cx="872" cy="508" r="7" fill="#E8820C"/>
  <circle cx="998" cy="488" r="7" fill="#E8820C"/>
</svg>
