<svg width="1200" height="720" viewBox="0 0 1200 720" fill="none" xmlns="http://www.w3.org/2000/svg">
  <rect width="1200" height="720" rx="28" fill="#F6FAF7"/>
  <rect x="42" y="42" width="1116" height="636" rx="24" fill="#FFFFFF" stroke="#DCE8E0"/>

  <rect x="86" y="86" width="1028" height="92" rx="18" fill="#F8FCF9" stroke="#E2ECE6"/>
  <rect x="116" y="118" width="224" height="12" rx="6" fill="#2E6A48"/>
  <rect x="116" y="138" width="154" height="10" rx="5" fill="#5A866D"/>
  <rect x="914" y="112" width="170" height="42" rx="12" fill="#FFF7ED" stroke="#F2D7B7"/>
  <rect x="940" y="128" width="118" height="10" rx="5" fill="#D97706"/>

  <rect x="86" y="206" width="668" height="430" rx="22" fill="#F9FCFA" stroke="#DFEAE3"/>
  <rect x="120" y="248" width="600" height="84" rx="16" fill="#FFFFFF" stroke="#E1EBE5"/>
  <circle cx="164" cy="290" r="18" fill="#1E4D35"/>
  <rect x="194" y="276" width="148" height="12" rx="6" fill="#2E6A48"/>
  <rect x="194" y="296" width="104" height="9" rx="4.5" fill="#5A866D"/>

  <rect x="120" y="350" width="600" height="252" rx="16" fill="#FFFFFF" stroke="#E1EBE5"/>
  <rect x="148" y="380" width="546" height="188" rx="12" fill="#F5FAF6"/>
  <path d="M178 536L242 492L304 510L370 452L444 474L516 430L590 446L664 410" stroke="#1E4D35" stroke-width="8" stroke-linecap="round" stroke-linejoin="round"/>
  <circle cx="242" cy="492" r="7" fill="#E8820C"/>
  <circle cx="370" cy="452" r="7" fill="#E8820C"/>
  <circle cx="516" cy="430" r="7" fill="#E8820C"/>

  <rect x="778" y="206" width="336" height="430" rx="22" fill="#FFF8F0" stroke="#F1D9BC"/>
  <rect x="812" y="244" width="268" height="164" rx="16" fill="#FFFFFF" stroke="#F0DFCA"/>
  <rect x="842" y="280" width="208" height="14" rx="7" fill="#D97706"/>
  <rect x="842" y="306" width="146" height="10" rx="5" fill="#E4A25C"/>
  <rect x="842" y="324" width="174" height="10" rx="5" fill="#EFC08A"/>
  <rect x="812" y="430" width="268" height="172" rx="16" fill="#FFFFFF" stroke="#F0DFCA"/>
  <circle cx="868" cy="486" r="24" fill="#FFF4E8"/>
  <circle cx="868" cy="479" r="10" fill="#D97706"/>
  <rect x="854" y="495" width="28" height="12" rx="6" fill="#CD7316"/>
  <rect x="906" y="470" width="140" height="10" rx="5" fill="#C08446"/>
  <rect x="906" y="488" width="92" height="9" rx="4.5" fill="#D8AA78"/>
</svg>
