<svg width="640" height="400" viewBox="0 0 640 400" fill="none" xmlns="http://www.w3.org/2000/svg">
  <rect width="640" height="400" rx="24" fill="#F7FBF8"/>
  <rect x="30" y="30" width="580" height="340" rx="18" fill="#FFFFFF" stroke="#DCE8E1"/>
  <rect x="62" y="212" width="516" height="126" rx="14" fill="#F5FAF6" stroke="#DDE8E1"/>
  <circle cx="196" cy="164" r="72" fill="#ECF7EF" stroke="#CEE1D4"/>
  <circle cx="196" cy="142" r="26" fill="#1E4D35"/>
  <rect x="160" y="178" width="72" height="30" rx="15" fill="#2D6A48"/>
  <circle cx="444" cy="164" r="72" fill="#FFF4E9" stroke="#F0D6B5"/>
  <circle cx="444" cy="142" r="26" fill="#D97706"/>
  <rect x="408" y="178" width="72" height="30" rx="15" fill="#CB7216"/>
  <rect x="262" y="122" width="116" height="86" rx="14" fill="#FFFFFF" stroke="#D8E4DC"/>
  <rect x="280" y="148" width="80" height="10" rx="5" fill="#1E4D35"/>
  <rect x="280" y="166" width="58" height="8" rx="4" fill="#4B7E5F"/>
  <rect x="90" y="248" width="460" height="14" rx="7" fill="#AFC0B6"/>
  <rect x="90" y="272" width="320" height="10" rx="5" fill="#C4D0C8"/>
</svg>
