<svg width="640" height="400" viewBox="0 0 640 400" fill="none" xmlns="http://www.w3.org/2000/svg">
  <rect width="640" height="400" rx="24" fill="#F7FBF8"/>
  <rect x="30" y="30" width="580" height="340" rx="18" fill="#FFFFFF" stroke="#DCE8E1"/>
  <rect x="62" y="62" width="516" height="110" rx="14" fill="#ECF7EF"/>
  <rect x="86" y="88" width="130" height="14" rx="7" fill="#1E4D35"/>
  <rect x="86" y="112" width="98" height="10" rx="5" fill="#58876D"/>
  <rect x="86" y="130" width="116" height="10" rx="5" fill="#7A9F8A"/>
  <rect x="62" y="190" width="516" height="148" rx="14" fill="#F9FCFA" stroke="#E2ECE6"/>
  <path d="M94 296L150 262L206 276L260 232L320 252L374 214L430 228L486 194L546 206" stroke="#1E4D35" stroke-width="7" stroke-linecap="round" stroke-linejoin="round"/>
  <circle cx="150" cy="262" r="6" fill="#E8820C"/>
  <circle cx="260" cy="232" r="6" fill="#E8820C"/>
  <circle cx="374" cy="214" r="6" fill="#E8820C"/>
  <circle cx="486" cy="194" r="6" fill="#E8820C"/>
</svg>
