<svg width="640" height="360" viewBox="0 0 640 360" fill="none" xmlns="http://www.w3.org/2000/svg">
  <rect width="640" height="360" rx="28" fill="#F5F8F6"/>
  <rect x="42" y="34" width="556" height="292" rx="22" fill="#FFFFFF" stroke="#D7E3DC"/>

  <rect x="82" y="72" width="224" height="214" rx="18" fill="#FFF7EE" stroke="#F1D6B7"/>
  <rect x="104" y="98" width="180" height="14" rx="7" fill="#E8820C"/>
  <rect x="104" y="122" width="132" height="10" rx="5" fill="#F0B777"/>
  <rect x="104" y="140" width="148" height="10" rx="5" fill="#F4C892"/>
  <rect x="104" y="158" width="112" height="10" rx="5" fill="#F4C892"/>
  <rect x="104" y="188" width="180" height="80" rx="12" fill="#FFFFFF" stroke="#F3DFC8"/>
  <circle cx="132" cy="214" r="10" fill="#D97706"/>
  <rect x="150" y="207" width="110" height="9" rx="4.5" fill="#C56E13"/>
  <rect x="150" y="223" width="82" height="8" rx="4" fill="#DE9A4E"/>

  <rect x="330" y="72" width="228" height="100" rx="16" fill="#EEF7F1" stroke="#D2E4D8"/>
  <circle cx="362" cy="108" r="16" fill="#1E4D35"/>
  <rect x="386" y="96" width="146" height="10" rx="5" fill="#2F6B49"/>
  <rect x="386" y="114" width="118" height="8" rx="4" fill="#4A7F5D"/>
  <rect x="330" y="184" width="106" height="102" rx="16" fill="#F8FBF9" stroke="#DFEAE4"/>
  <rect x="350" y="206" width="66" height="8" rx="4" fill="#B4C4BA"/>
  <rect x="350" y="220" width="48" height="8" rx="4" fill="#C5D1CA"/>
  <rect x="350" y="234" width="58" height="8" rx="4" fill="#C5D1CA"/>

  <rect x="452" y="184" width="106" height="102" rx="16" fill="#F8FBF9" stroke="#DFEAE4"/>
  <path d="M485 248L502 224L519 236L534 210" stroke="#1E4D35" stroke-width="5" stroke-linecap="round" stroke-linejoin="round"/>
  <circle cx="485" cy="248" r="4.5" fill="#E8820C"/>
  <circle cx="519" cy="236" r="4.5" fill="#E8820C"/>
  <circle cx="534" cy="210" r="4.5" fill="#E8820C"/>
</svg>
