<svg width="640" height="400" viewBox="0 0 640 400" fill="none" xmlns="http://www.w3.org/2000/svg">
  <rect width="640" height="400" rx="24" fill="#F7FBF8"/>
  <rect x="30" y="30" width="580" height="340" rx="18" fill="#FFFFFF" stroke="#DCE8E1"/>
  <rect x="60" y="60" width="250" height="280" rx="16" fill="#FFF7EE" stroke="#F1D7B8"/>
  <rect x="84" y="92" width="202" height="14" rx="7" fill="#D97706"/>
  <rect x="84" y="116" width="146" height="10" rx="5" fill="#E4A460"/>
  <rect x="84" y="134" width="170" height="10" rx="5" fill="#EEC18D"/>
  <rect x="84" y="152" width="120" height="10" rx="5" fill="#F2D2AB"/>
  <rect x="84" y="190" width="202" height="124" rx="12" fill="#FFFFFF" stroke="#F1DFC9"/>
  <circle cx="116" cy="228" r="12" fill="#D97706"/>
  <rect x="136" y="220" width="128" height="10" rx="5" fill="#C66F12"/>
  <rect x="136" y="238" width="86" height="8" rx="4" fill="#DD9A4E"/>
  <rect x="332" y="76" width="248" height="116" rx="16" fill="#ECF7EF" stroke="#D1E3D7"/>
  <circle cx="366" cy="134" r="18" fill="#1E4D35"/>
  <rect x="392" y="122" width="164" height="10" rx="5" fill="#2D6948"/>
  <rect x="392" y="140" width="120" height="8" rx="4" fill="#4F8063"/>
  <rect x="332" y="214" width="248" height="126" rx="16" fill="#F8FBF9" stroke="#DFEAE4"/>
  <path d="M360 308L392 284L422 294L454 266L484 276L516 252" stroke="#1E4D35" stroke-width="6" stroke-linecap="round" stroke-linejoin="round"/>
  <circle cx="392" cy="284" r="5" fill="#E8820C"/>
  <circle cx="454" cy="266" r="5" fill="#E8820C"/>
</svg>
