<svg width="640" height="360" viewBox="0 0 640 360" fill="none" xmlns="http://www.w3.org/2000/svg">
  <rect width="640" height="360" rx="28" fill="#F5F8F6"/>
  <rect x="42" y="34" width="556" height="292" rx="22" fill="#FFFFFF" stroke="#D7E3DC"/>

  <rect x="70" y="218" width="500" height="84" rx="18" fill="#F5F9F6" stroke="#DDE8E1"/>
  <rect x="92" y="238" width="458" height="10" rx="5" fill="#D3DED8"/>
  <rect x="92" y="256" width="392" height="10" rx="5" fill="#E2EAE5"/>

  <circle cx="196" cy="156" r="64" fill="#ECF7EF" stroke="#CFE1D5"/>
  <circle cx="196" cy="138" r="24" fill="#1E4D35"/>
  <rect x="162" y="168" width="68" height="28" rx="14" fill="#2D6948"/>

  <circle cx="444" cy="156" r="64" fill="#FFF4E9" stroke="#F1D7B6"/>
  <circle cx="444" cy="138" r="24" fill="#D97706"/>
  <rect x="410" y="168" width="68" height="28" rx="14" fill="#CC7316"/>

  <rect x="256" y="124" width="128" height="64" rx="16" fill="#FFFFFF" stroke="#D5E3DA"/>
  <rect x="274" y="144" width="92" height="8" rx="4" fill="#1E4D35"/>
  <rect x="274" y="158" width="70" height="8" rx="4" fill="#3F7B59"/>

  <circle cx="320" cy="92" r="18" fill="#FFF7EE" stroke="#F1D4B3"/>
  <path d="M312 92L318 98L329 86" stroke="#B45309" stroke-width="4" stroke-linecap="round" stroke-linejoin="round"/>
</svg>
